<svg width="151" height="50" viewBox="0 0 151 50" fill="none" xmlns="http://www.w3.org/2000/svg">
<g clip-path="url(#clip0_9_12)">
<path d="M142.863 44.3005C124.503 54.7262 108.62 30.7173 86.2352 49.8185V44.7998C109.931 26.662 125.356 50.8575 142.863 39.7005V44.3005Z" fill="#008D39"/>
<path d="M90.6587 33.3401V0H86.0234V41.3296C114.33 21.724 122.349 51.0895 150.252 33.3148V28.0289C127.953 46.5349 116.206 20.8464 90.6587 33.3451V33.3401Z" fill="#0A1D5C"/>
<path d="M97.8563 22.758V0H93.221V29.431C108.973 19.6711 125.905 38.2528 143.034 29.315V24.2056C127.671 33.3552 113.326 17.6939 97.8563 22.758Z" fill="#009AB9"/>
<path d="M3.43489 17.0886V31.4637H10.2391V34.2176H0.262291V17.0886H3.43489Z" fill="#009AB9"/>
<path d="M13.2352 27.4891V17.0886H16.4078V27.4891C16.4078 30.2229 17.8049 31.5847 20.5992 31.5847C23.3935 31.5847 24.7907 30.2178 24.7907 27.4891V17.0886H27.9633V27.4891C27.9633 32.0589 25.5069 34.3437 20.5942 34.3437C15.6814 34.3437 13.2251 32.0589 13.2251 27.4891H13.2352Z" fill="#009AB9"/>
<path d="M34.7372 17.0886V34.2176H31.5646V17.0886H34.7372ZM46.7871 17.0886L39.4785 25.0781L47.5537 34.2176H43.1555L36.5328 26.213V24.1551L42.9083 17.0886H46.7921H46.7871Z" fill="#009AB9"/>
<path d="M60.4862 17.0886V19.8224H51.9066V24.1349H60.0777V26.9746H51.8713V31.4687H60.6527V34.2227H48.7592V17.0937H60.4862V17.0886Z" fill="#009AB9"/>
<path d="M63.5882 34.2228V17.0938H66.7608L75.8045 29.5774V17.0938H78.8611V34.2228H75.6885L66.6448 21.4769V34.2228H63.5882Z" fill="#009AB9"/>
<path d="M11.7069 13.6689C10.4963 14.1279 9.12944 14.3549 7.59105 14.3549C2.5623 14.3549 0.0504456 11.9187 0.0504456 7.05636C0.0504456 2.45129 2.5623 0.14624 7.59105 0.14624C9.1244 0.14624 10.4963 0.373215 11.7069 0.832208V3.18266C10.4963 2.65809 9.18997 2.40086 7.78777 2.40086C4.42349 2.40086 2.74388 3.95437 2.74388 7.05636C2.74388 10.4206 4.42349 12.1002 7.78777 12.1002C9.18997 12.1002 10.4963 11.838 11.7069 11.3184V13.6689Z" fill="#0A1D5C"/>
<path d="M23.7466 0.24707V2.48151H16.7306V6.00718H23.4137V8.32737H16.7053V11.9993H23.8878V14.2539H14.1582V0.24707H23.7516H23.7466Z" fill="#0A1D5C"/>
<path d="M26.2837 14.2539V0.24707H28.8813L36.2756 10.4559V0.24707H38.7723V14.2539H36.1747L28.7804 3.82823V14.2539H26.2837Z" fill="#0A1D5C"/>
<path d="M50.8776 0.24707V2.50169H46.8627V14.259H44.2651V2.49664H40.2502V0.24707H50.8776Z" fill="#0A1D5C"/>
<path d="M52.3454 14.2338V0.24707H58.7108C61.5707 0.24707 63.0031 1.49795 63.0031 3.99972C63.0031 5.68942 61.8884 7.09162 59.6641 8.20127L64.1027 14.2539H60.8292L56.5671 8.15083V6.96552C59.0487 6.54183 60.2895 5.57845 60.2895 4.07538C60.2895 3.04138 59.7095 2.5269 58.5443 2.5269H54.9884V14.2338H52.3454Z" fill="#0A1D5C"/>
<path d="M64.8341 7.26821C64.8341 2.52191 67.1795 0.14624 71.8703 0.14624C76.5611 0.14624 78.7955 2.52191 78.7955 7.26821C78.7955 12.0145 76.4854 14.3498 71.8703 14.3498C67.2551 14.3498 65.0459 11.9893 64.8341 7.26821ZM71.8703 12.1002C74.6898 12.1002 76.1021 10.4711 76.1021 7.21272C76.1021 3.95437 74.6898 2.40086 71.8703 2.40086C69.0508 2.40086 67.5325 4.00481 67.5325 7.21272C67.5325 10.4206 68.9801 12.1002 71.8703 12.1002Z" fill="#0A1D5C"/>
<path d="M78.8863 36.3159H0.0756683V37.2642H78.8863V36.3159Z" fill="#0A1D5C"/>
<path d="M0 43.8917V39.9727H1.39716C2.6783 39.9727 3.31383 40.588 3.31383 41.8238C3.31383 43.2007 2.66317 43.8917 1.36689 43.8917H0ZM1.37194 43.6446C2.46141 43.6446 3.00111 43.0393 3.00111 41.8238C3.00111 40.7545 2.45637 40.2198 1.37194 40.2198H0.287501V43.6446H1.37194Z" fill="#0A1D5C"/>
<path d="M6.95552 39.9729V40.22H4.67064V41.7837H6.86473V42.0308H4.67064V43.6499H6.99587V43.897H4.38314V39.9779H6.95552V39.9729Z" fill="#0A1D5C"/>
<path d="M12.4533 39.9729V40.22H10.1685V41.7837H12.3625V42.0308H10.1685V43.6499H12.4937V43.897H9.88095V39.9779H12.4533V39.9729Z" fill="#0A1D5C"/>
<path d="M13.6235 43.7557V43.4531C14.0371 43.5994 14.486 43.67 14.9803 43.67C15.8025 43.67 16.211 43.3573 16.211 42.7369C16.211 42.2779 15.9437 42.0509 15.4091 42.0509H14.602C13.8707 42.0509 13.5075 41.723 13.5075 41.0623C13.5075 40.3158 14.0422 39.9375 15.1115 39.9375C15.5503 39.9375 15.974 39.993 16.3876 40.1039V40.3763C15.979 40.2502 15.5503 40.1846 15.1115 40.1846C14.2338 40.1846 13.795 40.4772 13.795 41.0623C13.795 41.5364 14.0623 41.7735 14.602 41.7735H15.4091C16.1354 41.7735 16.4985 42.0912 16.4985 42.7318C16.4985 43.5187 15.9942 43.9121 14.9803 43.9121C14.486 43.9121 14.0321 43.8566 13.6235 43.7456V43.7557Z" fill="#0A1D5C"/>
<path d="M20.1301 39.9729V40.22H18.7885V43.892H18.501V40.22H17.1845V39.9729H20.1301Z" fill="#0A1D5C"/>
<path d="M20.9523 43.892V39.9729H22.5714C23.2826 39.9729 23.6356 40.2856 23.6356 40.9111C23.6356 41.4558 23.2523 41.8391 22.4806 42.0661L23.8021 43.892H23.4086L22.1073 42.0762V41.8795C22.9093 41.7635 23.3128 41.4457 23.3128 40.9363C23.3128 40.4672 23.0505 40.2301 22.526 40.2301H21.2448V43.892H20.9573H20.9523Z" fill="#0A1D5C"/>
<path d="M24.6495 43.892H24.3418L26.1172 39.9729H26.4602L28.2407 43.892H27.8977L27.3177 42.5755H25.6683L25.7793 42.3284H27.2067L26.2685 40.1948L24.6495 43.887V43.892Z" fill="#0A1D5C"/>
<path d="M31.2519 39.9729V40.22H29.9102V43.892H29.6227V40.22H28.3063V39.9729H31.2519Z" fill="#0A1D5C"/>
<path d="M34.6464 39.9729V40.22H32.3615V41.7837H34.5556V42.0308H32.3615V43.6499H34.6868V43.897H32.074V39.9779H34.6464V39.9729Z" fill="#0A1D5C"/>
<path d="M38.8581 43.7405C38.5252 43.8616 38.1721 43.9221 37.8089 43.9221C36.4067 43.9221 35.7056 43.2412 35.7056 41.8793C35.7056 40.5931 36.3916 39.9475 37.7585 39.9475C38.1317 39.9475 38.4999 40.003 38.853 40.114V40.3611C38.4949 40.2501 38.1519 40.1947 37.814 40.1947C36.5984 40.1947 35.9931 40.7545 35.9931 41.8793C35.9931 43.0747 36.5833 43.6749 37.7635 43.6749C38.0056 43.6749 38.273 43.6346 38.5706 43.5539V42.1113H38.8581V43.7405Z" fill="#0A1D5C"/>
<path d="M40.4721 39.9729V43.892H40.1846V39.9729H40.4721Z" fill="#0A1D5C"/>
<path d="M41.8037 43.892H41.496L43.2714 39.9729H43.6144L45.3949 43.892H45.0519L44.4719 42.5755H42.8225L42.9335 42.3284H44.3609L43.4228 40.1948L41.8037 43.887V43.892Z" fill="#0A1D5C"/>
<path d="M46.2574 43.7557V43.4531C46.671 43.5994 47.1199 43.67 47.6143 43.67C48.4364 43.67 48.845 43.3573 48.845 42.7369C48.845 42.2779 48.5776 42.0509 48.043 42.0509H47.236C46.5046 42.0509 46.1414 41.723 46.1414 41.0623C46.1414 40.3158 46.6761 39.9375 47.7454 39.9375C48.1842 39.9375 48.6079 39.993 49.0215 40.1039V40.3763C48.6129 40.2502 48.1842 40.1846 47.7454 40.1846C46.8678 40.1846 46.4289 40.4772 46.4289 41.0623C46.4289 41.5364 46.6963 41.7735 47.236 41.7735H48.043C48.7693 41.7735 49.1325 42.0912 49.1325 42.7318C49.1325 43.5187 48.6281 43.9121 47.6143 43.9121C47.1199 43.9121 46.666 43.8566 46.2574 43.7456V43.7557Z" fill="#0A1D5C"/>
<path d="M54.5244 39.9729V40.22H52.2395V41.7837H54.4336V42.0308H52.2395V43.6499H54.5647V43.897H51.952V39.9779H54.5244V39.9729Z" fill="#0A1D5C"/>
<path d="M55.7248 43.892V39.9729H56.093L58.7108 43.4027V39.9729H58.9731V43.892H58.741L55.9871 40.2957V43.892H55.7248Z" fill="#0A1D5C"/>
<path d="M61.8884 43.892H61.5808L63.3562 39.9729H63.6992L65.4797 43.892H65.1367L64.5566 42.5755H62.9073L63.0183 42.3284H64.4457L63.5075 40.1948L61.8884 43.887V43.892Z" fill="#0A1D5C"/>
<path d="M69.3836 43.7405C69.0507 43.8616 68.6977 43.9221 68.3345 43.9221C66.9323 43.9221 66.2312 43.2412 66.2312 41.8793C66.2312 40.5931 66.9172 39.9475 68.2841 39.9475C68.6573 39.9475 69.0255 40.003 69.3786 40.114V40.3611C69.0205 40.2501 68.6775 40.1947 68.3396 40.1947C67.124 40.1947 66.5187 40.7545 66.5187 41.8793C66.5187 43.0747 67.1088 43.6749 68.2891 43.6749C68.5312 43.6749 68.7985 43.6346 69.0961 43.5539V42.1113H69.3836V43.7405Z" fill="#0A1D5C"/>
<path d="M70.5689 42.3788V39.9729H70.8564V42.3788C70.8564 43.2413 71.2852 43.6701 72.1426 43.6701C73.0001 43.6701 73.4288 43.2413 73.4288 42.3788V39.9729H73.7163V42.3788C73.7163 43.4078 73.1918 43.9172 72.1426 43.9172C71.0935 43.9172 70.5689 43.4027 70.5689 42.3788Z" fill="#0A1D5C"/>
<path d="M74.9168 43.892H74.6091L76.3845 39.9729H76.7275L78.508 43.892H78.165L77.585 42.5755H75.9356L76.0466 42.3284H77.474L76.5359 40.1948L74.9168 43.887V43.892Z" fill="#0A1D5C"/>
<path d="M11.1924 46.0508H11.5354L12.8064 48.3256L14.1128 46.0508H14.4306L12.9628 48.5979V49.9699H12.6753V48.5979L11.1974 46.0508H11.1924Z" fill="#0A1D5C"/>
<path d="M17.0332 49.9699V46.0508H17.3207L19.0861 49.6319L20.7455 46.0508H21.0078V49.9699H20.7455V46.5804L19.1869 49.9699H18.9499L17.2904 46.5552V49.9699H17.0281H17.0332Z" fill="#0A1D5C"/>
<path d="M24.8108 46.0508V46.2979H22.526V47.8615H24.7201V48.1087H22.526V49.7278H24.8512V49.9749H22.2385V46.0558H24.8108V46.0508Z" fill="#0A1D5C"/>
<path d="M26.0113 49.9699V46.0508H27.4084C28.6896 46.0508 29.3251 46.6661 29.3251 47.9019C29.3251 49.2789 28.6745 49.9699 27.3782 49.9699H26.0062H26.0113ZM27.3832 49.7227C28.4727 49.7227 29.0124 49.1175 29.0124 47.9019C29.0124 46.8326 28.4677 46.2979 27.3832 46.2979H26.2988V49.7227H27.3832Z" fill="#0A1D5C"/>
<path d="M30.8181 46.0508V49.9699H30.5306V46.0508H30.8181Z" fill="#0A1D5C"/>
<path d="M32.0488 48.0177C32.0488 46.6912 32.7045 46.0254 34.0159 46.0254C35.3273 46.0254 35.9528 46.6912 35.9528 48.0177C35.9528 49.3443 35.3072 50 34.0159 50C32.7247 50 32.0488 49.3392 32.0488 48.0177ZM34.0159 49.7528C35.0953 49.7528 35.6401 49.1677 35.6401 48.0026C35.6401 46.8375 35.1004 46.2725 34.0159 46.2725C32.9315 46.2725 32.3615 46.8475 32.3615 48.0026C32.3615 49.1576 32.9113 49.7528 34.0159 49.7528Z" fill="#0A1D5C"/>
<path d="M38.737 49.9699H38.4293L40.2048 46.0508H40.5478L42.3283 49.9699H41.9853L41.4052 48.6534H39.7559L39.8668 48.4063H41.2943L40.3561 46.2727L38.737 49.9648V49.9699Z" fill="#0A1D5C"/>
<path d="M43.2109 49.9699V46.0508H43.4984L45.2638 49.6319L46.9232 46.0508H47.1855V49.9699H46.9232V46.5804L45.3647 49.9699H45.1276L43.4682 46.5552V49.9699H43.2059H43.2109Z" fill="#0A1D5C"/>
<path d="M48.4162 49.9699V46.0508H50.0857C50.8322 46.0508 51.2055 46.3534 51.2055 46.9637C51.2055 47.4076 50.9331 47.7304 50.3934 47.9221C50.9684 48.0179 51.2559 48.3256 51.2559 48.84C51.2559 49.5966 50.8474 49.9699 50.0303 49.9699H48.4162ZM50 49.7227C50.6305 49.7227 50.9482 49.4302 50.9482 48.8451C50.9482 48.3256 50.5548 48.0683 49.7629 48.0683H49.546V47.8716C50.459 47.7909 50.918 47.4933 50.918 46.9789C50.918 46.5199 50.6355 46.2929 50.0757 46.2929H48.7088V49.7177H50.005L50 49.7227Z" fill="#0A1D5C"/>
<path d="M52.8397 46.0508V49.9699H52.5522V46.0508H52.8397Z" fill="#0A1D5C"/>
<path d="M56.7789 46.0508V46.2979H54.4941V47.8615H56.6882V48.1087H54.4941V49.7278H56.8193V49.9749H54.2066V46.0558H56.7789V46.0508Z" fill="#0A1D5C"/>
<path d="M57.9794 49.9699V46.0508H58.3476L60.9654 49.4806V46.0508H61.2277V49.9699H60.9957L58.2417 46.3736V49.9699H57.9794Z" fill="#0A1D5C"/>
<path d="M64.9954 46.0508V46.2979H63.6538V49.9699H63.3663V46.2979H62.0498V46.0508H64.9954Z" fill="#0A1D5C"/>
<path d="M68.3849 46.0508V46.2979H66.1V47.8615H68.2941V48.1087H66.1V49.7278H68.4252V49.9749H65.8125V46.0558H68.3849V46.0508Z" fill="#0A1D5C"/>
</g>
<defs>
<clipPath id="clip0_9_12">
<rect width="150.257" height="50" fill="white"/>
</clipPath>
</defs>
</svg>
